<svg viewBox="0 0 200 200" xmlns="http://www.w3.org/2000/svg" fill-rule="evenodd" clip-rule="evenodd" stroke-linejoin="round" stroke-miterlimit="2"><path d="M68.238 144.482H55.055c-8.824 0-15.988-7.164-15.988-15.988V73.45c0-8.824 7.164-15.988 15.988-15.988h89.89c8.824 0 15.988 7.164 15.988 15.988v55.044c0 8.824-7.164 15.988-15.988 15.988H87.44l-19.443 14.056.241-14.056z" fill="#54c1c8"/><path d="M100.056 89.509c6.458-9.263 19.373-9.263 25.831-4.631 6.458 4.631 6.458 13.894 0 23.157-4.52 6.947-16.144 13.894-25.831 18.525-9.686-4.631-21.31-11.578-25.831-18.525-6.457-9.263-6.457-18.526 0-23.157 6.458-4.632 19.373-4.632 25.831 4.631z" fill="#fff"/></svg>